<svg xmlns="http://www.w3.org/2000/svg" viewBox="0 0 720 720" role="img" aria-label="Nixie layered avatar master source">
  <metadata>
    Nixie layered character master. Character-only source based on the supplied concept sheet.
    Hidden state groups are intended for animation states: idle, listening, thinking, speaking, building, success, alert.
  </metadata>
  <defs>
    <linearGradient id="nixieSkin" x1="210" y1="80" x2="480" y2="650" gradientUnits="userSpaceOnUse">
      <stop offset="0" stop-color="#e8ffff"/>
      <stop offset="0.22" stop-color="#66f8f1"/>
      <stop offset="0.52" stop-color="#8f6dff"/>
      <stop offset="0.78" stop-color="#39ddd0"/>
      <stop offset="1" stop-color="#7b67ff"/>
    </linearGradient>
    <linearGradient id="nixieEdge" x1="190" y1="90" x2="500" y2="650" gradientUnits="userSpaceOnUse">
      <stop offset="0" stop-color="#142f77"/>
      <stop offset="0.5" stop-color="#513397"/>
      <stop offset="1" stop-color="#0c1b53"/>
    </linearGradient>
    <linearGradient id="nixieAlertSkin" x1="240" y1="120" x2="500" y2="620" gradientUnits="userSpaceOnUse">
      <stop offset="0" stop-color="#ffe7cf"/>
      <stop offset="0.45" stop-color="#c07cff"/>
      <stop offset="0.74" stop-color="#ff976b"/>
      <stop offset="1" stop-color="#46216c"/>
    </linearGradient>
    <radialGradient id="nixieGlow" cx="48%" cy="43%" r="58%">
      <stop offset="0" stop-color="#bfffff" stop-opacity="0.78"/>
      <stop offset="0.42" stop-color="#4df4ec" stop-opacity="0.26"/>
      <stop offset="1" stop-color="#5b42d6" stop-opacity="0"/>
    </radialGradient>
    <radialGradient id="eyeCyan" cx="50%" cy="45%" r="65%">
      <stop offset="0" stop-color="#efffff"/>
      <stop offset="0.55" stop-color="#77fff5"/>
      <stop offset="1" stop-color="#12245d"/>
    </radialGradient>
    <radialGradient id="eyeAlert" cx="50%" cy="45%" r="65%">
      <stop offset="0" stop-color="#fff7b2"/>
      <stop offset="0.55" stop-color="#ffb35d"/>
      <stop offset="1" stop-color="#32144f"/>
    </radialGradient>
    <filter id="softBlur" x="-40%" y="-40%" width="180%" height="180%">
      <feGaussianBlur stdDeviation="12"/>
    </filter>
    <style>
      .stroke-main{stroke:url(#nixieEdge);stroke-width:9;stroke-linejoin:round;stroke-linecap:round}
      .state{display:none}
      .export-note{display:none}
    </style>
  </defs>

  <g id="nixie-character-master">
    <g id="layer-glow">
      <ellipse cx="356" cy="356" rx="190" ry="270" fill="url(#nixieGlow)"/>
      <ellipse cx="356" cy="640" rx="92" ry="20" fill="#071735" opacity="0.22" filter="url(#softBlur)"/>
    </g>

    <g id="layer-tail-fluid">
      <path id="tail-main" class="stroke-main" fill="url(#nixieSkin)" d="M414 442 C493 475 548 552 515 630 C504 657 529 666 554 642 C602 595 579 510 516 465 C482 441 446 431 414 442 Z"/>
      <path id="tail-left-drop" class="stroke-main" fill="url(#nixieSkin)" d="M282 445 C238 493 233 566 266 604 C288 629 319 608 309 572 C297 529 315 491 347 462 Z"/>
      <path id="fluid-side-splash" class="stroke-main" fill="#81fff5" opacity="0.86" d="M523 206 C578 217 607 262 587 308 C576 332 598 350 623 329 C663 295 644 225 594 199 C563 183 535 184 516 194 Z"/>
      <circle cx="255" cy="620" r="13" fill="#83fff6" stroke="#13296b" stroke-width="6"/>
      <circle cx="548" cy="170" r="11" fill="#a98cff" stroke="#13296b" stroke-width="6"/>
    </g>

    <g id="layer-body">
      <path id="body-main" class="stroke-main" fill="url(#nixieSkin)" d="M330 240 C274 282 241 355 251 430 C258 490 296 532 286 586 C280 620 291 654 326 662 C360 670 386 628 398 579 C419 620 455 654 491 640 C523 628 520 585 500 548 C475 501 482 452 506 401 C541 326 506 273 443 238 C407 218 361 217 330 240 Z"/>
      <path id="body-inner-highlight" d="M310 300 C288 366 298 472 333 538 C347 565 361 588 366 626" fill="none" stroke="#eaffff" stroke-width="10" stroke-linecap="round" opacity="0.34"/>
      <path id="body-shadow" d="M430 282 C470 353 464 443 428 511" fill="none" stroke="#2f1a80" stroke-width="8" stroke-linecap="round" opacity="0.24"/>
    </g>

    <g id="layer-code-texture" opacity="0.45" fill="#eaffff" font-family="Consolas, monospace" font-size="13">
      <text x="333" y="338">function()</text>
      <text x="372" y="375">0104</text>
      <text x="313" y="418">store.build</text>
      <text x="358" y="466">flow.ai</text>
      <text x="326" y="510">schema()</text>
    </g>

    <g id="layer-left-arm-idle">
      <path id="left-arm-idle" class="stroke-main" fill="url(#nixieSkin)" d="M261 340 C203 360 161 415 162 482 C162 523 187 559 218 551 C245 544 245 511 243 482 C239 436 263 403 304 383 Z"/>
      <path d="M202 430 C193 462 200 494 218 512" fill="none" stroke="#eaffff" stroke-width="8" stroke-linecap="round" opacity="0.34"/>
    </g>

    <g id="layer-right-arm-idle">
      <path id="right-arm-idle" class="stroke-main" fill="url(#nixieSkin)" d="M479 335 C544 354 588 398 597 460 C604 498 585 532 556 530 C527 528 520 494 514 466 C506 424 474 397 431 382 Z"/>
      <path d="M548 410 C566 436 566 471 552 492" fill="none" stroke="#eaffff" stroke-width="8" stroke-linecap="round" opacity="0.34"/>
    </g>

    <g id="layer-head">
      <path id="head-main" class="stroke-main" fill="url(#nixieSkin)" d="M231 247 C205 164 239 99 315 76 C368 60 409 79 438 43 C455 22 477 33 473 61 C469 101 508 101 526 82 C544 62 568 79 555 108 C544 135 572 147 597 132 C619 119 638 138 626 162 C612 191 635 209 665 198 C688 190 701 214 683 237 C651 279 610 309 562 323 C493 344 432 329 371 360 C315 389 256 345 231 247 Z"/>
      <path d="M269 151 C307 94 387 83 447 113" fill="none" stroke="#f5ffff" stroke-width="14" stroke-linecap="round" opacity="0.52"/>
      <path d="M476 75 C510 99 516 135 503 168" fill="none" stroke="#ffffff" stroke-width="7" stroke-linecap="round" opacity="0.45"/>
      <circle cx="314" cy="116" r="9" fill="#ffffff" opacity="0.62"/>
      <circle cx="349" cy="96" r="5" fill="#ffffff" opacity="0.55"/>
    </g>

    <g id="layer-left-eye">
      <path id="left-eye-open" d="M273 236 C299 206 334 211 350 237 C333 273 293 278 273 236 Z" fill="url(#eyeCyan)" stroke="#132667" stroke-width="8" stroke-linejoin="round"/>
    </g>

    <g id="layer-right-eye">
      <path id="right-eye-open" d="M430 236 C459 207 497 212 512 238 C493 274 452 278 430 236 Z" fill="url(#eyeCyan)" stroke="#132667" stroke-width="8" stroke-linejoin="round"/>
    </g>

    <g id="layer-mouth-closed">
      <path id="mouth-closed" d="M360 308 C385 319 414 318 438 306" fill="none" stroke="#17306f" stroke-width="8" stroke-linecap="round" opacity="0.8"/>
    </g>

    <g id="layer-mouth-open" class="state">
      <ellipse id="mouth-open" cx="399" cy="308" rx="28" ry="17" fill="#14174e" opacity="0.9"/>
      <ellipse cx="390" cy="303" rx="10" ry="5" fill="#9ffff8" opacity="0.44"/>
    </g>

    <g id="layer-mouth-smile" class="state">
      <path id="mouth-smile" d="M351 301 C378 338 429 340 460 302" fill="none" stroke="#17306f" stroke-width="9" stroke-linecap="round"/>
      <path d="M369 315 C393 331 428 329 447 312" fill="none" stroke="#dfffff" stroke-width="4" stroke-linecap="round" opacity="0.54"/>
    </g>

    <g id="layer-chest-symbol">
      <path id="chest-gem" d="M367 388 L425 424 L417 497 L367 536 L317 497 L309 424 Z" fill="#7d55ff" stroke="#172867" stroke-width="8" stroke-linejoin="round"/>
      <path d="M349 440 L326 459 L349 479" fill="none" stroke="#eaffff" stroke-width="10" stroke-linecap="round" stroke-linejoin="round"/>
      <path d="M388 440 L411 459 L388 479" fill="none" stroke="#eaffff" stroke-width="10" stroke-linecap="round" stroke-linejoin="round"/>
      <path d="M377 431 L354 491" fill="none" stroke="#eaffff" stroke-width="8" stroke-linecap="round"/>
    </g>

    <g id="layer-particles" opacity="0.88">
      <g fill="#9ffff8">
        <circle cx="190" cy="280" r="6"/>
        <circle cx="224" cy="188" r="4"/>
        <circle cx="586" cy="272" r="5"/>
        <circle cx="617" cy="398" r="4"/>
        <circle cx="222" cy="560" r="4"/>
        <circle cx="514" cy="596" r="6"/>
      </g>
      <g fill="none" stroke="#b58cff" stroke-width="6" stroke-linecap="round">
        <path d="M204 382 h26"/>
        <path d="M217 369 v26"/>
        <path d="M568 120 h28"/>
        <path d="M582 106 v28"/>
        <path d="M616 555 h26"/>
        <path d="M629 542 v26"/>
      </g>
    </g>

    <g id="state-idle" class="export-note">
      <desc>Default visible pose. Use base layers with mouth closed and idle floating transform.</desc>
    </g>

    <g id="state-listening" class="state">
      <ellipse cx="356" cy="356" rx="245" ry="315" fill="none" stroke="#7ffff6" stroke-width="6" opacity="0.34"/>
      <ellipse cx="356" cy="356" rx="208" ry="276" fill="none" stroke="#8f6dff" stroke-width="5" opacity="0.28"/>
      <path d="M648 316 C672 342 672 383 648 409" fill="none" stroke="#8ffff7" stroke-width="9" stroke-linecap="round" opacity="0.7"/>
      <path d="M187 318 C164 343 164 381 187 407" fill="none" stroke="#8ffff7" stroke-width="9" stroke-linecap="round" opacity="0.7"/>
    </g>

    <g id="state-thinking" class="state">
      <path id="thinking-right-arm" class="stroke-main" fill="url(#nixieSkin)" d="M477 344 C526 362 552 398 542 435 C536 459 514 465 498 448 C482 431 488 406 505 390 C478 383 454 376 431 363 Z"/>
      <circle cx="570" cy="148" r="12" fill="#dfffff" opacity="0.72"/>
      <circle cx="607" cy="110" r="8" fill="#a98cff" opacity="0.74"/>
      <path d="M598 166 C622 143 655 142 674 163 C693 184 686 218 659 229" fill="none" stroke="#8ffff7" stroke-width="8" stroke-linecap="round" opacity="0.66"/>
    </g>

    <g id="state-speaking" class="state">
      <use href="#mouth-open"/>
      <path d="M560 320 C602 329 633 355 644 392" fill="none" stroke="#8ffff7" stroke-width="8" stroke-linecap="round" opacity="0.7"/>
      <path d="M568 292 C629 302 674 341 690 392" fill="none" stroke="#8f6dff" stroke-width="6" stroke-linecap="round" opacity="0.5"/>
    </g>

    <g id="state-building" class="state">
      <path id="building-left-arm" class="stroke-main" fill="url(#nixieSkin)" d="M263 342 C216 344 177 366 154 405 C141 427 151 450 174 451 C194 452 207 434 219 416 C234 392 260 379 294 375 Z"/>
      <path id="building-right-arm" class="stroke-main" fill="url(#nixieSkin)" d="M477 335 C525 326 569 341 597 376 C613 397 606 423 581 427 C559 430 545 412 532 395 C516 375 489 366 456 369 Z"/>
      <g id="building-tools">
        <path d="M144 384 L104 344" stroke="#dfffff" stroke-width="9" stroke-linecap="round"/>
        <path d="M95 336 L116 315" stroke="#8f6dff" stroke-width="10" stroke-linecap="round"/>
        <path d="M592 366 L642 324" stroke="#dfffff" stroke-width="9" stroke-linecap="round"/>
        <path d="M633 314 L666 338" stroke="#8ffff7" stroke-width="10" stroke-linecap="round"/>
      </g>
      <g id="building-hologram" opacity="0.82">
        <rect x="118" y="204" width="104" height="76" rx="12" fill="#182a64" stroke="#79fff4" stroke-width="4"/>
        <path d="M137 230 h56 M137 250 h38" stroke="#9ffff8" stroke-width="5" stroke-linecap="round"/>
        <rect x="534" y="214" width="118" height="88" rx="12" fill="#182a64" stroke="#b58cff" stroke-width="4"/>
        <path d="M552 242 h68 M552 264 h42" stroke="#dfffff" stroke-width="5" stroke-linecap="round"/>
      </g>
    </g>

    <g id="state-success" class="state">
      <use href="#mouth-smile"/>
      <path id="success-left-arm" class="stroke-main" fill="url(#nixieSkin)" d="M274 336 C226 319 195 283 195 242 C195 217 214 204 233 220 C250 235 248 260 241 282 C263 293 285 307 306 325 Z"/>
      <path id="success-right-arm" class="stroke-main" fill="url(#nixieSkin)" d="M468 330 C518 306 550 268 548 226 C547 200 526 190 508 207 C493 222 497 247 506 269 C486 285 464 304 445 324 Z"/>
      <g id="success-confetti">
        <path d="M173 156 h34 M190 139 v34" stroke="#8ffff7" stroke-width="8" stroke-linecap="round"/>
        <path d="M604 158 h38 M623 139 v38" stroke="#b58cff" stroke-width="8" stroke-linecap="round"/>
        <circle cx="246" cy="104" r="8" fill="#dfffff"/>
        <circle cx="537" cy="96" r="7" fill="#8ffff7"/>
        <circle cx="644" cy="466" r="9" fill="#b58cff"/>
      </g>
    </g>

    <g id="state-alert" class="state">
      <path id="alert-tint" d="M231 247 C205 164 239 99 315 76 C368 60 409 79 438 43 C455 22 477 33 473 61 C469 101 508 101 526 82 C544 62 568 79 555 108 C544 135 572 147 597 132 C619 119 638 138 626 162 C612 191 635 209 665 198 C688 190 701 214 683 237 C651 279 610 309 562 323 C493 344 432 329 371 360 C315 389 256 345 231 247 Z" fill="url(#nixieAlertSkin)" opacity="0.58"/>
      <path d="M273 236 C299 206 334 211 350 237 C333 273 293 278 273 236 Z" fill="url(#eyeAlert)" stroke="#32144f" stroke-width="8"/>
      <path d="M430 236 C459 207 497 212 512 238 C493 274 452 278 430 236 Z" fill="url(#eyeAlert)" stroke="#32144f" stroke-width="8"/>
      <path d="M615 404 L665 492 H565 Z" fill="#ff976b" stroke="#32144f" stroke-width="8" stroke-linejoin="round"/>
      <path d="M615 430 v31" stroke="#fff7b2" stroke-width="8" stroke-linecap="round"/>
      <circle cx="615" cy="478" r="5" fill="#fff7b2"/>
    </g>
  </g>
</svg>
