<svg xmlns="http://www.w3.org/2000/svg" viewBox="0 0 512 512">
  <defs>
    <linearGradient id="bodyFill" x1="166" y1="168" x2="344" y2="468" gradientUnits="userSpaceOnUse">
      <stop offset="0%" stop-color="#c8ffff"/>
      <stop offset="34%" stop-color="#4de8ee"/>
      <stop offset="68%" stop-color="#8d68ff"/>
      <stop offset="100%" stop-color="#37ded4"/>
    </linearGradient>
    <linearGradient id="bodyStroke" x1="160" y1="170" x2="360" y2="470" gradientUnits="userSpaceOnUse">
      <stop offset="0%" stop-color="#133b7d"/>
      <stop offset="55%" stop-color="#4d2a96"/>
      <stop offset="100%" stop-color="#10275c"/>
    </linearGradient>
  </defs>
  <path d="M237 176 C202 201 180 246 184 292 C188 337 211 370 203 410 C199 430 205 453 226 458 C246 463 263 438 272 409 C283 434 303 455 325 448 C344 442 345 416 333 392 C318 361 322 331 337 300 C357 257 339 206 300 178 C280 164 256 160 237 176 Z" fill="url(#bodyFill)" stroke="url(#bodyStroke)" stroke-width="8" stroke-linejoin="round"/>
  <path d="M223 209 C209 241 205 291 218 338 C229 377 247 395 256 425" fill="none" stroke="#dfffff" stroke-width="7" stroke-linecap="round" opacity="0.32"/>
  <path d="M294 212 C316 252 315 301 296 340" fill="none" stroke="#25105f" stroke-width="5" stroke-linecap="round" opacity="0.26"/>
  <path d="M214 246 C238 257 280 260 313 244" fill="none" stroke="#aefaff" stroke-width="3" stroke-linecap="round" opacity="0.28"/>
  <g fill="#e9ffff" opacity="0.38" font-family="monospace" font-size="10">
    <text x="226" y="266">function()</text>
    <text x="244" y="292">0104</text>
    <text x="216" y="326">store.build</text>
    <text x="252" y="358">AI flow</text>
  </g>
</svg>
