<svg xmlns="http://www.w3.org/2000/svg" viewBox="0 0 512 512">
  <defs>
    <linearGradient id="headFill" x1="160" y1="50" x2="360" y2="230" gradientUnits="userSpaceOnUse">
      <stop offset="0%" stop-color="#e5ffff"/>
      <stop offset="38%" stop-color="#72f5f2"/>
      <stop offset="70%" stop-color="#9b76ff"/>
      <stop offset="100%" stop-color="#62f3de"/>
    </linearGradient>
    <linearGradient id="headStroke" x1="156" y1="68" x2="360" y2="250" gradientUnits="userSpaceOnUse">
      <stop offset="0%" stop-color="#123c81"/>
      <stop offset="48%" stop-color="#49329a"/>
      <stop offset="100%" stop-color="#101c54"/>
    </linearGradient>
  </defs>
  <path d="M173 170 C161 122 183 82 228 65 C262 52 288 62 308 40 C319 28 332 36 330 52 C327 76 351 76 361 65 C371 55 385 65 378 82 C371 101 389 108 404 98 C416 90 427 100 421 114 C413 134 428 146 445 139 C458 134 466 148 456 162 C439 187 416 207 388 218 C345 235 306 228 270 245 C233 263 190 239 173 170 Z" fill="url(#headFill)" stroke="url(#headStroke)" stroke-width="8" stroke-linejoin="round"/>
  <path d="M196 121 C219 84 270 73 308 91" fill="none" stroke="#f4ffff" stroke-width="10" stroke-linecap="round" opacity="0.52"/>
  <path d="M336 68 C357 83 361 103 353 123" fill="none" stroke="#ffffff" stroke-width="5" stroke-linecap="round" opacity="0.45"/>
  <circle cx="223" cy="97" r="7" fill="#ffffff" opacity="0.62"/>
  <circle cx="245" cy="84" r="4" fill="#ffffff" opacity="0.55"/>
</svg>
