<svg xmlns="http://www.w3.org/2000/svg" viewBox="0 0 512 512">
  <defs>
    <linearGradient id="tailFill" x1="250" y1="350" x2="390" y2="505" gradientUnits="userSpaceOnUse">
      <stop offset="0%" stop-color="#bbffff"/>
      <stop offset="38%" stop-color="#5ff1e7"/>
      <stop offset="72%" stop-color="#8c6aff"/>
      <stop offset="100%" stop-color="#32dbc9"/>
    </linearGradient>
  </defs>
  <path d="M286 365 C331 387 361 429 353 471 C350 489 363 500 379 486 C402 466 400 424 379 397 C357 367 324 350 290 344 Z" fill="url(#tailFill)" stroke="#17306f" stroke-width="7" stroke-linejoin="round"/>
  <path d="M218 378 C195 404 192 442 209 462 C221 477 239 468 236 449 C232 420 239 398 257 380 Z" fill="url(#tailFill)" stroke="#17306f" stroke-width="7" stroke-linejoin="round"/>
  <path d="M395 231 C428 241 443 267 429 294 C421 309 433 323 448 311 C469 294 461 251 432 231 C415 219 399 218 389 221 Z" fill="#7cf7ee" stroke="#17306f" stroke-width="6" opacity="0.82"/>
  <circle cx="187" cy="430" r="9" fill="#86fff2" stroke="#17306f" stroke-width="4"/>
  <circle cx="408" cy="188" r="8" fill="#a987ff" stroke="#17306f" stroke-width="4"/>
</svg>
